<?xml version="1.0" encoding="UTF-8"?>
<svg id="_图层_1" data-name="图层_1" xmlns="http://www.w3.org/2000/svg" version="1.1" xmlns:xlink="http://www.w3.org/1999/xlink" viewBox="0 0 128 128">
  <!-- Generator: Adobe Illustrator 29.8.1, SVG Export Plug-In . SVG Version: 2.1.1 Build 2)  -->
  <defs>
    <style>
      .st0, .st1 {
        fill: #fff;
        font-family: JetBrainsMono-Bold, 'JetBrains Mono';
        font-size: 28.06px;
        font-weight: 700;
      }

      .st0, .st2 {
        isolation: isolate;
      }

      .st3 {
        fill: url(#_未命名的渐变);
      }

      .st4 {
        fill: #ff8100;
      }

      .st5 {
        fill: url(#_未命名的渐变_2);
      }
    </style>
    <linearGradient id="_未命名的渐变" data-name="未命名的渐变" x1="-.77" y1="-899.42" x2="49.06" y2="-1006.93" gradientTransform="translate(0 -884) scale(1 -1)" gradientUnits="userSpaceOnUse">
      <stop offset=".1" stop-color="#fc801d"/>
      <stop offset=".59" stop-color="#fe2857"/>
    </linearGradient>
    <linearGradient id="_未命名的渐变_2" data-name="未命名的渐变 2" x1="8.72" y1="-1004.53" x2="126.55" y2="-886.69" gradientTransform="translate(0 -884) scale(1 -1)" gradientUnits="userSpaceOnUse">
      <stop offset=".21" stop-color="#fe2857"/>
      <stop offset=".7" stop-color="#007eff"/>
    </linearGradient>
  </defs>
  <g id="_图层_11" data-name="_图层_1">
    <path class="st4" d="M33.08,12.07H8.43C3.84,12.07.14,15.79.14,20.37v.12l.36,22.2c.04,2.37,1.09,4.63,2.9,6.17l76.74,65.78c1.51,1.29,3.42,1.99,5.39,1.99h22.83c4.59,0,8.29-3.72,8.29-8.31v-22.12c0-2.39-1.03-4.67-2.84-6.23L38.55,14.12c-1.51-1.33-3.46-2.05-5.47-2.05Z"/>
    <path class="st3" d="M30.15,12.07H8.29C3.72,12.07,0,15.79,0,20.35h0v25.28c0,.4.02.8.08,1.21l10.96,74.77c.6,4.08,4.08,7.1,8.21,7.1h30.97c4.59,0,8.29-3.72,8.29-8.29h0v-37.22c0-.86-.14-1.71-.38-2.51l-20.07-62.85c-1.11-3.44-4.28-5.77-7.9-5.77h-.01Z"/>
    <path class="st5" d="M120.42,0H51.78c-3.34,0-6.33,1.99-7.64,5.07L12.37,80.32c-.44,1.05-.66,2.17-.64,3.3l.3,36.86c.04,4.54,3.74,8.23,8.29,8.23h35.54c1.63,0,3.2-.48,4.57-1.37l64.57-42.45c2.33-1.53,3.74-4.14,3.74-6.94V8.29c-.02-4.57-3.74-8.29-8.31-8.29h-.01Z"/>
    <path d="M106.2,24.13H24.13v75.8h82.07V24.13Z"/>
  </g>
  <g id="_图层_2">
    <g class="st2">
      <text class="st0" transform="translate(27.77 55.09) scale(.9 1)"><tspan x="0" y="0">Title</tspan></text>
      <text class="st1" transform="translate(103.53 55.09) scale(.9 1)"><tspan x="0" y="0"> </tspan></text>
      <text class="st0" transform="translate(27.77 88.76) scale(.9 1)"><tspan x="0" y="0">_ Bar</tspan></text>
    </g>
  </g>
</svg>